<svg width="30" height="30" viewBox="0 0 30 30" fill="none" xmlns="http://www.w3.org/2000/svg">
<g clip-path="url(#clip0_506_31)">
<mask id="mask0_506_31" style="mask-type:luminance" maskUnits="userSpaceOnUse" x="0" y="0" width="30" height="30">
<path d="M30 0H0V30H30V0Z" fill="white"/>
</mask>
<g mask="url(#mask0_506_31)">
<path d="M27.5 15V11.25C27.5 5 25 2.5 18.75 2.5H11.25C5 2.5 2.5 5 2.5 11.25V18.75C2.5 25 5 27.5 11.25 27.5H15" stroke="#050816" stroke-width="1.5" stroke-linecap="round" stroke-linejoin="round"/>
<path d="M26.2001 22.3006L24.1626 22.9881C23.6001 23.1756 23.1501 23.6131 22.9626 24.1881L22.2751 26.2256C21.6876 27.9881 19.2126 27.9506 18.6626 26.1881L16.3501 18.7506C15.9001 17.2756 17.2626 15.9006 18.7251 16.3631L26.1751 18.6756C27.9251 19.2256 27.9501 21.7131 26.2001 22.3006Z" stroke="#050816" stroke-width="1.5" stroke-linecap="round" stroke-linejoin="round"/>
</g>
</g>
<defs>
<clipPath id="clip0_506_31">
<rect width="30" height="30" fill="white"/>
</clipPath>
</defs>
</svg>
